<svg width="370" height="370" viewBox="0 0 370 370" fill="none" xmlns="http://www.w3.org/2000/svg">
<rect width="370" height="370" rx="50" fill="#8467DC"/>
<path d="M58.24 114.4V199H34.72V114.4H58.24ZM68.7541 156.52C68.7541 148.2 70.4741 140.8 73.9141 134.32C77.4341 127.76 82.3941 122.68 88.7941 119.08C95.1941 115.4 102.554 113.56 110.874 113.56C121.434 113.56 130.314 116.4 137.514 122.08C144.714 127.68 149.354 135.32 151.434 145H126.114C124.594 141.8 122.474 139.36 119.754 137.68C117.114 136 114.034 135.16 110.514 135.16C105.074 135.16 100.714 137.12 97.4341 141.04C94.2341 144.88 92.6341 150.04 92.6341 156.52C92.6341 163.08 94.2341 168.32 97.4341 172.24C100.714 176.08 105.074 178 110.514 178C114.034 178 117.114 177.16 119.754 175.48C122.474 173.8 124.594 171.36 126.114 168.16H151.434C149.354 177.84 144.714 185.52 137.514 191.2C130.314 196.8 121.434 199.6 110.874 199.6C102.554 199.6 95.1941 197.8 88.7941 194.2C82.3941 190.52 77.4341 185.44 73.9141 178.96C70.4741 172.4 68.7541 164.92 68.7541 156.52ZM203.132 199.84C195.212 199.84 187.932 198 181.292 194.32C174.652 190.56 169.372 185.4 165.452 178.84C161.612 172.2 159.692 164.72 159.692 156.4C159.692 148.08 161.612 140.64 165.452 134.08C169.372 127.44 174.652 122.28 181.292 118.6C187.932 114.92 195.212 113.08 203.132 113.08C211.132 113.08 218.412 114.92 224.972 118.6C231.612 122.28 236.852 127.44 240.692 134.08C244.532 140.64 246.452 148.08 246.452 156.4C246.452 164.72 244.532 172.2 240.692 178.84C236.852 185.4 231.612 190.56 224.972 194.32C218.332 198 211.052 199.84 203.132 199.84ZM203.132 178C209.132 178 213.852 176.04 217.292 172.12C220.812 168.2 222.572 162.96 222.572 156.4C222.572 149.68 220.812 144.4 217.292 140.56C213.852 136.64 209.132 134.68 203.132 134.68C197.052 134.68 192.292 136.64 188.852 140.56C185.412 144.4 183.692 149.68 183.692 156.4C183.692 163.04 185.412 168.32 188.852 172.24C192.292 176.08 197.052 178 203.132 178ZM335.385 199H311.865L280.545 151.72V199H257.025V114.4H280.545L311.865 162.28V114.4H335.385V199Z" fill="white"/>
<path d="M110.24 280.42C107.44 280.42 104.92 279.94 102.68 278.98C100.44 277.98 98.68 276.58 97.4 274.78C96.12 272.98 95.48 270.88 95.48 268.48H102.8C102.96 270.28 103.66 271.76 104.9 272.92C106.18 274.08 107.96 274.66 110.24 274.66C112.6 274.66 114.44 274.1 115.76 272.98C117.08 271.82 117.74 270.34 117.74 268.54C117.74 267.14 117.32 266 116.48 265.12C115.68 264.24 114.66 263.56 113.42 263.08C112.22 262.6 110.54 262.08 108.38 261.52C105.66 260.8 103.44 260.08 101.72 259.36C100.04 258.6 98.6 257.44 97.4 255.88C96.2 254.32 95.6 252.24 95.6 249.64C95.6 247.24 96.2 245.14 97.4 243.34C98.6 241.54 100.28 240.16 102.44 239.2C104.6 238.24 107.1 237.76 109.94 237.76C113.98 237.76 117.28 238.78 119.84 240.82C122.44 242.82 123.88 245.58 124.16 249.1H116.6C116.48 247.58 115.76 246.28 114.44 245.2C113.12 244.12 111.38 243.58 109.22 243.58C107.26 243.58 105.66 244.08 104.42 245.08C103.18 246.08 102.56 247.52 102.56 249.4C102.56 250.68 102.94 251.74 103.7 252.58C104.5 253.38 105.5 254.02 106.7 254.5C107.9 254.98 109.54 255.5 111.62 256.06C114.38 256.82 116.62 257.58 118.34 258.34C120.1 259.1 121.58 260.28 122.78 261.88C124.02 263.44 124.64 265.54 124.64 268.18C124.64 270.3 124.06 272.3 122.9 274.18C121.78 276.06 120.12 277.58 117.92 278.74C115.76 279.86 113.2 280.42 110.24 280.42ZM159.651 238.3V243.88H148.551V280H141.711V243.88H130.551V238.3H159.651ZM185.598 280.42C181.718 280.42 178.138 279.52 174.858 277.72C171.618 275.88 169.038 273.34 167.118 270.1C165.238 266.82 164.298 263.14 164.298 259.06C164.298 254.98 165.238 251.32 167.118 248.08C169.038 244.84 171.618 242.32 174.858 240.52C178.138 238.68 181.718 237.76 185.598 237.76C189.518 237.76 193.098 238.68 196.338 240.52C199.618 242.32 202.198 244.84 204.078 248.08C205.958 251.32 206.898 254.98 206.898 259.06C206.898 263.14 205.958 266.82 204.078 270.1C202.198 273.34 199.618 275.88 196.338 277.72C193.098 279.52 189.518 280.42 185.598 280.42ZM185.598 274.48C188.358 274.48 190.818 273.86 192.978 272.62C195.138 271.34 196.818 269.54 198.018 267.22C199.258 264.86 199.878 262.14 199.878 259.06C199.878 255.98 199.258 253.28 198.018 250.96C196.818 248.64 195.138 246.86 192.978 245.62C190.818 244.38 188.358 243.76 185.598 243.76C182.838 243.76 180.378 244.38 178.218 245.62C176.058 246.86 174.358 248.64 173.118 250.96C171.918 253.28 171.318 255.98 171.318 259.06C171.318 262.14 171.918 264.86 173.118 267.22C174.358 269.54 176.058 271.34 178.218 272.62C180.378 273.86 182.838 274.48 185.598 274.48ZM235.289 280L225.689 263.32H220.469V280H213.629V238.3H228.029C231.229 238.3 233.929 238.86 236.129 239.98C238.369 241.1 240.029 242.6 241.109 244.48C242.229 246.36 242.789 248.46 242.789 250.78C242.789 253.5 241.989 255.98 240.389 258.22C238.829 260.42 236.409 261.92 233.129 262.72L243.449 280H235.289ZM220.469 257.86H228.029C230.589 257.86 232.509 257.22 233.789 255.94C235.109 254.66 235.769 252.94 235.769 250.78C235.769 248.62 235.129 246.94 233.849 245.74C232.569 244.5 230.629 243.88 228.029 243.88H220.469V257.86ZM258.379 243.82V256.06H272.779V261.64H258.379V274.42H274.579V280H251.539V238.24H274.579V243.82H258.379Z" fill="white"/>
</svg>
